<svg xmlns="http://www.w3.org/2000/svg" xmlns:xlink="http://www.w3.org/1999/xlink" width="57.82" height="50" viewBox="0 0 57.82 50"><defs><style>.cls-1{fill:url(#Degradado_sin_nombre_3);}.cls-2{fill:url(#Degradado_sin_nombre_3-7);}.cls-3{fill:url(#Degradado_sin_nombre_3-8);}.cls-4{fill:url(#Degradado_sin_nombre_3-9);}.cls-5{fill:url(#Degradado_sin_nombre_3-10);}.cls-6{fill:url(#Degradado_sin_nombre_3-11);}.cls-7{fill:url(#Degradado_sin_nombre_3-12);}.cls-8{fill:url(#Degradado_sin_nombre_3-13);}.cls-9{fill:url(#Degradado_sin_nombre_3-14);}.cls-10{fill:url(#Degradado_sin_nombre_3-15);}.cls-11{fill:url(#Degradado_sin_nombre_3-16);}.cls-12{fill:url(#Degradado_sin_nombre_3-17);}.cls-13{fill:url(#Degradado_sin_nombre_3-18);}.cls-14{fill:url(#Degradado_sin_nombre_3-19);}.cls-15{fill:url(#Degradado_sin_nombre_3-20);}.cls-16{fill:url(#Degradado_sin_nombre_3-21);}.cls-17{fill:url(#Degradado_sin_nombre_2);}</style><linearGradient id="Degradado_sin_nombre_3" x1="28.52" y1="18.64" x2="28.52" y2="60.03" gradientUnits="userSpaceOnUse"><stop offset="0" stop-color="#ffb025"/><stop offset="0.05" stop-color="#ffb129"/><stop offset="0.1" stop-color="#ffb434"/><stop offset="0.15" stop-color="#ffba46"/><stop offset="0.19" stop-color="#ffc260"/><stop offset="0.21" stop-color="#ffc66f"/><stop offset="0.25" stop-color="#ffc05b"/><stop offset="0.33" stop-color="#ffb73e"/><stop offset="0.39" stop-color="#ffb22b"/><stop offset="0.44" stop-color="#ffb025"/><stop offset="0.49" stop-color="#ffb12a"/><stop offset="0.55" stop-color="#ffb537"/><stop offset="0.61" stop-color="#ffbc4d"/><stop offset="0.67" stop-color="#ffc56b"/><stop offset="0.67" stop-color="#ffc66f"/><stop offset="0.72" stop-color="#ffc05b"/><stop offset="0.8" stop-color="#ffb73e"/><stop offset="0.88" stop-color="#ffb22b"/><stop offset="0.93" stop-color="#ffb025"/></linearGradient><linearGradient id="Degradado_sin_nombre_3-7" x1="28.58" y1="9.34" x2="28.58" y2="62.85" xlink:href="#Degradado_sin_nombre_3"/><linearGradient id="Degradado_sin_nombre_3-8" x1="28.58" y1="9.34" x2="28.58" y2="62.85" xlink:href="#Degradado_sin_nombre_3"/><linearGradient id="Degradado_sin_nombre_3-9" x1="28.58" y1="9.34" x2="28.58" y2="62.85" xlink:href="#Degradado_sin_nombre_3"/><linearGradient id="Degradado_sin_nombre_3-10" x1="17.89" y1="9.34" x2="17.89" y2="62.85" xlink:href="#Degradado_sin_nombre_3"/><linearGradient id="Degradado_sin_nombre_3-11" x1="8.41" y1="9.34" x2="8.41" y2="62.85" xlink:href="#Degradado_sin_nombre_3"/><linearGradient id="Degradado_sin_nombre_3-12" x1="4.01" y1="9.34" x2="4.01" y2="62.85" xlink:href="#Degradado_sin_nombre_3"/><linearGradient id="Degradado_sin_nombre_3-13" x1="39.92" y1="9.34" x2="39.92" y2="62.85" xlink:href="#Degradado_sin_nombre_3"/><linearGradient id="Degradado_sin_nombre_3-14" x1="49.41" y1="9.34" x2="49.41" y2="62.85" xlink:href="#Degradado_sin_nombre_3"/><linearGradient id="Degradado_sin_nombre_3-15" x1="53.81" y1="9.34" x2="53.81" y2="62.85" xlink:href="#Degradado_sin_nombre_3"/><linearGradient id="Degradado_sin_nombre_3-16" x1="13.57" y1="9.34" x2="13.57" y2="62.85" xlink:href="#Degradado_sin_nombre_3"/><linearGradient id="Degradado_sin_nombre_3-17" x1="8.89" y1="9.34" x2="8.89" y2="62.85" xlink:href="#Degradado_sin_nombre_3"/><linearGradient id="Degradado_sin_nombre_3-18" x1="11.96" y1="9.34" x2="11.96" y2="62.85" xlink:href="#Degradado_sin_nombre_3"/><linearGradient id="Degradado_sin_nombre_3-19" x1="43.62" y1="9.34" x2="43.62" y2="62.85" xlink:href="#Degradado_sin_nombre_3"/><linearGradient id="Degradado_sin_nombre_3-20" x1="48.3" y1="9.34" x2="48.3" y2="62.85" xlink:href="#Degradado_sin_nombre_3"/><linearGradient id="Degradado_sin_nombre_3-21" x1="45.23" y1="9.34" x2="45.23" y2="62.85" xlink:href="#Degradado_sin_nombre_3"/><linearGradient id="Degradado_sin_nombre_2" x1="28.91" y1="-2.93" x2="28.91" y2="56.72" gradientUnits="userSpaceOnUse"><stop offset="0.01" stop-color="#81520c"/><stop offset="0.03" stop-color="#9a6511"/><stop offset="0.06" stop-color="#c6851a"/><stop offset="0.1" stop-color="#e59d20"/><stop offset="0.12" stop-color="#f8ab24"/><stop offset="0.14" stop-color="#ffb025"/><stop offset="0.18" stop-color="#ffb73c"/><stop offset="0.23" stop-color="#ffc05b"/><stop offset="0.27" stop-color="#ffbc4d"/><stop offset="0.38" stop-color="#ffb330"/><stop offset="0.44" stop-color="#ffb025"/><stop offset="0.47" stop-color="#ffb22a"/><stop offset="0.51" stop-color="#ffb737"/><stop offset="0.55" stop-color="#ffc04d"/><stop offset="0.58" stop-color="#ffcd6c"/><stop offset="0.62" stop-color="#ffdd93"/><stop offset="0.63" stop-color="#ffdf98"/><stop offset="0.82" stop-color="#ffb025"/><stop offset="0.85" stop-color="#e89f20"/><stop offset="0.93" stop-color="#ad7315"/><stop offset="0.98" stop-color="#81520c"/></linearGradient></defs><title>zeiri</title><g id="レイヤー_2" data-name="レイヤー 2"><g id="レイヤー_1-2" data-name="レイヤー 1"><path class="cls-1" d="M7.16,44.08l-.8.14a2,2,0,0,0-.29-.7,7.08,7.08,0,0,0,2-.48,1.74,1.74,0,0,0,.33-.18l.47.66-.2.09a5.44,5.44,0,0,1-.71.26v1h.24a2.47,2.47,0,0,0,.53,0v.8a2.65,2.65,0,0,0-.53,0H8a.43.43,0,0,1,0,.1,3.66,3.66,0,0,0,.81,1.18L8.76,47a5.46,5.46,0,0,0-.27.6,3.78,3.78,0,0,1-.59-1,7.71,7.71,0,0,1,0,.87V49A7.48,7.48,0,0,0,8,50H7.11a7.45,7.45,0,0,0,0-.94V47.71c0-.15,0-.75,0-.94a4.83,4.83,0,0,1-.92,1.75,2.65,2.65,0,0,0-.39-.79,5.39,5.39,0,0,0,.72-1,6.13,6.13,0,0,0,.44-1.06H6.67a3.34,3.34,0,0,0-.61,0v-.8a3.17,3.17,0,0,0,.61,0h.49Zm3.84.37a6.5,6.5,0,0,0,.61-1.55l.85.27a12.62,12.62,0,0,1-.63,1.28h.23a4.14,4.14,0,0,0,.64,0,3,3,0,0,0,0,.54v1.4a3.21,3.21,0,0,0,0,.56,6.25,6.25,0,0,0-.64,0h-.34V49c0,.14,0,.16.33.16s.33,0,.34-1.09a2.09,2.09,0,0,0,.72.34c-.06.83-.1,1.07-.24,1.25s-.39.26-1.1.26-.84-.15-.84-.65V46.88h-.48a4.73,4.73,0,0,1-.36,1.73A2.76,2.76,0,0,1,8.76,50a2,2,0,0,0-.56-.67,2.41,2.41,0,0,0,1.44-2.45H9.53a5.66,5.66,0,0,0-.61,0,4.79,4.79,0,0,0,0-.57V45a5.25,5.25,0,0,0,0-.56,3.82,3.82,0,0,0,.61,0Zm-1.25,0a4.69,4.69,0,0,0-.62-1.18l.74-.34a6.19,6.19,0,0,1,.63,1.18Zm0,1.73h2.14v-1H9.71Z"/><path class="cls-1" d="M14.21,44a3.18,3.18,0,0,0-.57,0v-.82a4.17,4.17,0,0,0,.69,0H15.4a3.25,3.25,0,0,0,.68,0v.81a5,5,0,0,0-.56,0h-.23v1.49h.18a2.45,2.45,0,0,0,.48,0v.78a3.75,3.75,0,0,0-.48,0h-.18v1.5l.75-.34,0,.8c-.66.33-1,.46-2.14.94l-.15.06-.21-.86A6.47,6.47,0,0,0,14.5,48V46.23h-.25a2.68,2.68,0,0,0-.52,0v-.79a2.79,2.79,0,0,0,.53,0h.24V44Zm3.68,4.15H17a6.92,6.92,0,0,0-.79,0v-.78a4.56,4.56,0,0,0,.79,0h.85v-.62h-.73c-.51,0-.68,0-.91,0a8.26,8.26,0,0,0,0-.95V44.2a8.24,8.24,0,0,0,0-1,9.2,9.2,0,0,0,1,0h2.1a6.64,6.64,0,0,0,1,0,9.49,9.49,0,0,0,0,1v1.63a8.43,8.43,0,0,0,0,1c-.25,0-.38,0-.83,0h-.88v.62h1a5.18,5.18,0,0,0,.8,0v.79a5.43,5.43,0,0,0-.8,0h-1V49h1.23a5.74,5.74,0,0,0,.81,0v.81a6.56,6.56,0,0,0-.87,0h-3.2a6.49,6.49,0,0,0-.86,0v-.81a5,5,0,0,0,.76,0h1.37ZM17,44v.76h.85V44Zm0,1.4v.77h.85v-.77Zm1.61-.64h.88V44h-.88Zm0,1.41h.88v-.77h-.88Z"/><path class="cls-1" d="M24.22,43.83a7.38,7.38,0,0,0,0-.87h1a7.56,7.56,0,0,0,0,.88v1.31h1.93a9.08,9.08,0,0,0,1.06,0v.95a8.17,8.17,0,0,0-1-.06h-2v2.74h1.61a6,6,0,0,0,1,0v.92a8.2,8.2,0,0,0-.95,0H22.7a8.28,8.28,0,0,0-1,0v-.92a7.28,7.28,0,0,0,1,0h1.53V46H22.46a10,10,0,0,0-1.12.06V45.1a9.3,9.3,0,0,0,1.12,0h1.76Z"/><path class="cls-1" d="M31.89,46.75H30.08a4.94,4.94,0,0,0-.7,0v-.67a4.6,4.6,0,0,0,.72,0h1.79v-.29H30.27a5.6,5.6,0,0,0-.64,0,4.1,4.1,0,0,0,0-.51v-.51a4.44,4.44,0,0,0,0-.53,6.13,6.13,0,0,0,.65,0h1.61v-.29H29.8a7.16,7.16,0,0,0-.89,0v-.75a7.21,7.21,0,0,0,.93,0h2.05a3,3,0,0,0-.05-.52h.92a2.27,2.27,0,0,0,0,.52h2.14a7.59,7.59,0,0,0,.94,0v.75a7.4,7.4,0,0,0-.89,0H32.71v.29h1.72a5.74,5.74,0,0,0,.64,0c0,.17,0,.3,0,.53v.51c0,.23,0,.34,0,.51a5.16,5.16,0,0,0-.61,0H32.71v.29h1.71a8,8,0,0,0,.81,0,6,6,0,0,0,0,.7v.26a3.43,3.43,0,0,0,.66,0v.73a3.64,3.64,0,0,0-.66,0v.44a5.65,5.65,0,0,0,0,.82h-.86V48.7H32.71v.42c0,.69-.19.83-1.12.83-.18,0-.49,0-.73,0a2.19,2.19,0,0,0-.24-.75,7.71,7.71,0,0,0,1,.07c.24,0,.3,0,.3-.18V48.7H30.1a4.13,4.13,0,0,0-.76,0V48a6.2,6.2,0,0,0,.72,0h1.83v-.33H29.7a5.45,5.45,0,0,0-.84,0V47a5.23,5.23,0,0,0,.82,0h2.21ZM30.46,45v.31h1.43V45Zm2.25.31h1.53V45H32.71Zm1.68,1.82v-.33H32.71v.33Zm-1.68,1h1.68v-.33H32.71Z"/><path class="cls-1" d="M40,47.77a4.33,4.33,0,0,0-.6,0v-.73c-.08.19-.11.24-.21.45a1.72,1.72,0,0,0-.56-.42,4.41,4.41,0,0,0,.44-1h-.48v3.09a.67.67,0,0,1-.16.51,1.17,1.17,0,0,1-.71.15l-.63,0a2,2,0,0,0-.16-.75,5.06,5.06,0,0,0,.68.08c.21,0,.25,0,.24-.19V47.18a4.64,4.64,0,0,1-1.12,1.62,3.19,3.19,0,0,0-.39-.83,4.16,4.16,0,0,0,1.29-1.84h-.52a3.6,3.6,0,0,0-.64,0v-.81a4.12,4.12,0,0,0,.68,0h.76a7.59,7.59,0,0,0-1-.86l.47-.46a7.74,7.74,0,0,1,.66.51,3.07,3.07,0,0,0,.62-.67H37.33a5.92,5.92,0,0,0-.65,0v-.78a6.49,6.49,0,0,0,.71,0h1.3a4.3,4.3,0,0,0,.65,0l.41.44-.16.23A7.2,7.2,0,0,1,38.52,45l.17.18-.17.19H39a3.72,3.72,0,0,0,.55,0l.33.41a1.38,1.38,0,0,0-.09.24A5,5,0,0,0,41,45.54a3.43,3.43,0,0,1-.63-.78,6.94,6.94,0,0,1-.58.67,2.61,2.61,0,0,0-.58-.52,3.94,3.94,0,0,0,1.13-1.47,1.88,1.88,0,0,0,.19-.58l.8.15a2,2,0,0,0-.12.27l-.13.3h1.58a7.7,7.7,0,0,0,.81,0v.78a3.09,3.09,0,0,0-.55,0,3.39,3.39,0,0,1-.76,1.19,5.37,5.37,0,0,0,1.47.43,2.57,2.57,0,0,0-.35.79A5.84,5.84,0,0,1,41.58,46a3.47,3.47,0,0,1-.71.39h.78a.34.34,0,0,0,0,.1.69.69,0,0,1,0,.13s0,.06,0,.13,0,.16,0,.29h1.08a2.89,2.89,0,0,0,.6,0c0,.18,0,.18,0,.34A8.84,8.84,0,0,1,43,49.26c-.15.47-.35.59-.94.59a7.32,7.32,0,0,1-.81-.06A2.61,2.61,0,0,0,41,49a4.67,4.67,0,0,0,.87.11c.25,0,.32-.09.41-.48a7.08,7.08,0,0,0,.1-.86h-1A3.32,3.32,0,0,1,39.27,50a2.76,2.76,0,0,0-.47-.68,2.66,2.66,0,0,0,1.78-1.51Zm.77-.73a3.91,3.91,0,0,0,0-.57.11.11,0,0,0,0-.06,7.24,7.24,0,0,1-.86.31,2.91,2.91,0,0,0-.26-.45c-.09.32-.16.48-.26.75A4.58,4.58,0,0,0,40,47Zm.16-2.75a2.66,2.66,0,0,0,.65.82,2,2,0,0,0,.54-.82Z"/><path class="cls-1" d="M47.35,46.6c0,.34,0,.42,0,.61h-2a5.3,5.3,0,0,1-.68,2.71,2.27,2.27,0,0,0-.68-.6c.48-.81.61-1.59.61-3.65a9.26,9.26,0,0,0,0-1l.81,0H46.6l.77,0a6.25,6.25,0,0,0,0,.68Zm-3.08-3.38a5.65,5.65,0,0,0,.82,0h1.65a5.21,5.21,0,0,0,.83,0v.85a5.18,5.18,0,0,0-.8,0H45.05a5.3,5.3,0,0,0-.78,0Zm2.29,3.25V45.34H45.37v1.13ZM48.65,46a7.34,7.34,0,0,1-.34,2.08,4,4,0,0,1-.66,1.23,5.12,5.12,0,0,1-.49.57,2.36,2.36,0,0,0-.63-.63,3.47,3.47,0,0,0,1.08-1.68,10.65,10.65,0,0,0,.25-2.82c0-.72,0-.95,0-1.21a6.91,6.91,0,0,0,2.84-.64l.43.78-.35.1a12.5,12.5,0,0,1-2.08.47v1H50.4a3.65,3.65,0,0,0,.74-.05v.89a4.22,4.22,0,0,0-.67,0h-.11v3a4.68,4.68,0,0,0,0,.82h-.9a6.14,6.14,0,0,0,0-.83V46Z"/><path class="cls-2" d="M30.48,21.47a2.62,2.62,0,0,1,2.62,2.6c0,2.09-2,2.86-4.2,2.86H24.05v-.17h.19a.9.9,0,0,0,.92-.88V17.94a.89.89,0,0,0-.92-.88h-.19V16.9h4.49c1.76,0,3.78.4,3.78,2.49a2,2,0,0,1-1.84,2.08Zm-2.27,4.79a2,2,0,0,0,2.18-2.34A2.12,2.12,0,0,0,28,21.63v-.15a1.69,1.69,0,0,0,1.81-1.93c0-1.49-.76-2-1.82-2h-.47v8.71Z"/><path class="cls-3" d="M28.58,34.14A12.23,12.23,0,1,1,40.81,21.91,12.24,12.24,0,0,1,28.58,34.14Zm0-23.65A11.43,11.43,0,1,0,40,21.91,11.44,11.44,0,0,0,28.58,10.49Z"/><path class="cls-4" d="M28.58,31.93a10,10,0,1,1,10-10A10,10,0,0,1,28.58,31.93Zm0-19.63a9.61,9.61,0,1,0,9.61,9.61A9.63,9.63,0,0,0,28.58,12.3Z"/><path class="cls-5" d="M14.74,35.33a2.1,2.1,0,0,1-1.24,1,2.78,2.78,0,0,1-3-.81A3.07,3.07,0,0,1,10.25,32a2.88,2.88,0,0,1,1.46-1.14,3.83,3.83,0,0,1,1.8-.22,5.31,5.31,0,0,1,1.67.56A16.89,16.89,0,0,1,18,33.05a18.33,18.33,0,0,0,8,4,.06.06,0,0,1,0,.11c-3.8.19-7.37-2.7-8.2-3.31a25.91,25.91,0,0,0-3-2.15,4.49,4.49,0,0,0-1.44-.44,2.85,2.85,0,0,0-1.42.21,2.55,2.55,0,0,0-1.09.85,2.22,2.22,0,0,0-.44,1.31A1.81,1.81,0,0,0,13,35.21,1.73,1.73,0,0,0,13.58,33a2.21,2.21,0,0,1,.92.62,1.65,1.65,0,0,1,.37,1.1A1.5,1.5,0,0,1,14.74,35.33Z"/><path class="cls-6" d="M16.74,35.19a.11.11,0,0,0-.08-.08.08.08,0,0,0-.09.08,3.56,3.56,0,0,1-1,2.15,4.65,4.65,0,0,1-2,1.21,3.78,3.78,0,0,1-.56.13,3.69,3.69,0,0,1-.58,0,5.67,5.67,0,0,1-1.16-.09A10.08,10.08,0,0,1,9,37.9c-.73-.33-1.46-.72-2.2-1.13a23.38,23.38,0,0,0-2.3-1.13,6.5,6.5,0,0,0-1.27-.41,3.76,3.76,0,0,0-1.38,0,2.56,2.56,0,0,0-1.23.64A2.51,2.51,0,0,0,.37,38.7a2.2,2.2,0,0,0,1.37,1.07,1.73,1.73,0,0,0,2-.56,1.31,1.31,0,0,0,.19-.69,1,1,0,0,0-.25-.62,1.9,1.9,0,0,1-3,.39A1.47,1.47,0,0,1,1,36.14a1.8,1.8,0,0,1,1-.35,2.89,2.89,0,0,1,1.12.15,6.11,6.11,0,0,1,1.1.46c.73.37,1.44.79,2.16,1.22s1.48.85,2.28,1.2a9.16,9.16,0,0,0,2.54.73,5.39,5.39,0,0,0,2.69-.27,4.67,4.67,0,0,0,1.18-.65,4.8,4.8,0,0,0,1-1A3.59,3.59,0,0,0,16.74,35.19Z"/><path class="cls-7" d="M8,35.46c-.68-.26-1.33-.55-2-.81A17,17,0,0,0,4,34a5.86,5.86,0,0,0-2-.19,4.31,4.31,0,0,0-1.92.65,0,0,0,0,1-.07,0,.06.06,0,0,1,0-.06,3.19,3.19,0,0,1,1.9-1.15,4.84,4.84,0,0,1,2.24.13,9,9,0,0,1,2,.84A13.41,13.41,0,0,1,8,35.37a.06.06,0,0,1,0,.07S8,35.47,8,35.46Z"/><path class="cls-8" d="M43.08,35.33a2.1,2.1,0,0,0,1.24,1,2.76,2.76,0,0,0,3-.81A2.91,2.91,0,0,0,48,33.78a3,3,0,0,0-.45-1.8,2.88,2.88,0,0,0-1.46-1.14,3.86,3.86,0,0,0-1.81-.22,5.39,5.39,0,0,0-1.67.56,16.8,16.8,0,0,0-2.77,1.87,18.39,18.39,0,0,1-8,4,.06.06,0,0,0,0,.11c3.8.19,7.37-2.7,8.2-3.31a24.3,24.3,0,0,1,3-2.15,4.35,4.35,0,0,1,1.44-.44,2.87,2.87,0,0,1,1.42.21,2.55,2.55,0,0,1,1.09.85,2.22,2.22,0,0,1,.44,1.31,1.81,1.81,0,0,1-2.62,1.54A1.73,1.73,0,0,1,44.24,33a2.15,2.15,0,0,0-.92.62,1.71,1.71,0,0,0-.38,1.1A1.5,1.5,0,0,0,43.08,35.33Z"/><path class="cls-9" d="M41.08,35.19s0-.07.08-.08a.09.09,0,0,1,.09.08,3.56,3.56,0,0,0,1,2.15,4.59,4.59,0,0,0,2,1.21,3.78,3.78,0,0,0,.56.13,3.64,3.64,0,0,0,.57,0,5.77,5.77,0,0,0,1.17-.09,9.85,9.85,0,0,0,2.27-.73c.74-.33,1.47-.72,2.21-1.13a24.35,24.35,0,0,1,2.29-1.13,7,7,0,0,1,1.27-.41,3.76,3.76,0,0,1,1.38,0,2.28,2.28,0,0,1,1.53,3.49,2.2,2.2,0,0,1-1.37,1.07,1.73,1.73,0,0,1-1.95-.56,1.31,1.31,0,0,1-.19-.69,1,1,0,0,1,.25-.62,1.9,1.9,0,0,0,3,.39,1.47,1.47,0,0,0-.32-2.15,1.8,1.8,0,0,0-1-.35,2.89,2.89,0,0,0-1.12.15,6.11,6.11,0,0,0-1.1.46c-.73.37-1.44.79-2.17,1.22a25.64,25.64,0,0,1-2.27,1.2,9.16,9.16,0,0,1-2.54.73A5.39,5.39,0,0,1,44,39.28a4.74,4.74,0,0,1-2.14-1.6A3.54,3.54,0,0,1,41.08,35.19Z"/><path class="cls-10" d="M49.87,35.46c.67-.26,1.33-.55,2-.81a16.41,16.41,0,0,1,2-.66,5.86,5.86,0,0,1,2-.19,4.35,4.35,0,0,1,1.92.65,0,0,0,0,0,.07,0,.06.06,0,0,0,0-.06,3.19,3.19,0,0,0-1.9-1.15,4.83,4.83,0,0,0-2.24.13,9,9,0,0,0-2,.84,12.82,12.82,0,0,0-1.82,1.17,0,0,0,0,0,0,.07S49.85,35.47,49.87,35.46Z"/><path class="cls-11" d="M14.24,23a.53.53,0,0,1,.49-.65.31.31,0,0,1,0-.18.5.5,0,0,1,.15-.15c-1.14-.18-1,.86-1,.86l-1.26-.53a1.46,1.46,0,0,1-.56,1.15,16,16,0,0,0,2,.55c.49,0,.46-.29.48-.87s.38-.5.38-.5C14.56,22.38,14.24,23,14.24,23Z"/><path class="cls-12" d="M14.85,19.1c-.31-.75,0-.88,0-.88-.53.07-.63.71-.63.71a.71.71,0,0,1,.26-.94.34.34,0,0,1,.2-.45c-1.08-.16-1.08,1.05-1,1.56-.6.68-1.27.43-1.72,1.21a1.64,1.64,0,0,0-.66-.86,5.68,5.68,0,0,0-.81-.43,1.42,1.42,0,0,1-.63-.56.66.66,0,0,0,.56.19,2.17,2.17,0,0,0,.53-.26c.41-.17.09.41.09.41.74-.3.79-.94.34-1.11s-1,.82-.94-.09c0-.7.62-.58.87-.49a.31.31,0,0,0,.32-.07c.21-.22-.06-.53-.06-.53a.32.32,0,0,0,0-.43l-1.7-.46c.2-1.16-1.55-.54-1.92-1.44-.08.66.3.77.3.77C5.74,15,6,18.16,6,18.16a2,2,0,0,1,.85-1.46c-1,1.23.77,2.46-.41,3.82a1.47,1.47,0,0,0,1-1,3,3,0,0,0,.17,1.63,2.36,2.36,0,0,1,.08,1.67,5.28,5.28,0,0,1-1,1.11,2.23,2.23,0,0,0-.19.24c-.14.15-.26.31-.39.48a5.73,5.73,0,0,0-.39.64,1.3,1.3,0,0,0-.08.17l-.07.16-.15.29a2.06,2.06,0,0,1-.36.5l-.11.1-.11.08a1.19,1.19,0,0,1-.25.13.9.9,0,0,1-.51,0,.66.66,0,0,1-.4-.26,1,1,0,0,1-.21-.5,1.42,1.42,0,0,1,0-.29.68.68,0,0,1,0-.14l0-.15a2,2,0,0,1,.26-.59,7.66,7.66,0,0,1,.86-1.1,6.65,6.65,0,0,0,.46-.59,3.83,3.83,0,0,0,.37-.69,3.44,3.44,0,0,0,.19-.83.47.47,0,0,0,.08-.14,2.41,2.41,0,0,0-.08-1.61,2.66,2.66,0,0,0-.92-1.2.06.06,0,0,0-.09.08,1.29,1.29,0,0,1,.16.58,7.77,7.77,0,0,1-.08,1,1.73,1.73,0,0,0,.09.93.94.94,0,0,0,.52.48,3.16,3.16,0,0,1-.22.61,4.4,4.4,0,0,1-.85,1.09,6.81,6.81,0,0,0-1,1.12,2.62,2.62,0,0,0-.36.73,1.17,1.17,0,0,0-.06.2,1.43,1.43,0,0,0,0,.22,2.06,2.06,0,0,0,0,.43,1.93,1.93,0,0,0,.32.84,1.57,1.57,0,0,0,.35.33,1.35,1.35,0,0,0,.44.2,1.68,1.68,0,0,0,.92-.05,2.22,2.22,0,0,0,.41-.2l.18-.13.16-.14a2.59,2.59,0,0,0,.43-.57c0,.25,0,.5.08.74a5.77,5.77,0,0,1,.1,1.1,1.44,1.44,0,0,1-.64,1,.59.59,0,0,0-.22.55c0,.31.1.64.11.89,0,.43-.27.45-.28.94s.36.51.7.51.39.39.39.39a1,1,0,0,0-.29-1,.71.71,0,0,1,.55.53c.48,0,.5.37.5.37a1.08,1.08,0,0,0-.38-1,.56.56,0,0,1,.55.44.37.37,0,0,1,.26.24,1.94,1.94,0,0,0,0-.4.84.84,0,0,0-.62-.74l-.58-.15c-.12-1.37.43-1.49.43-1.49A2.72,2.72,0,0,0,8.38,27a2.85,2.85,0,0,1,1.24-2.6c2.74-1.14,2.42-2.2,2.47-2.46a2.53,2.53,0,0,1-2.24-1.14,4,4,0,0,0,2.34.73,6.1,6.1,0,0,0,2.07-1.31C14.8,20.21,15.12,19.76,14.85,19.1Z"/><path class="cls-13" d="M14.58,27.39a.27.27,0,0,1,.36-.06,1.65,1.65,0,0,0-.29-.26.81.81,0,0,0-1,0,2.55,2.55,0,0,1-2.44.37s.26-.89.42-1.7-.3-1.26-1.46-1S9,26.62,9,26.62a1.5,1.5,0,0,0,1.28.15,1.35,1.35,0,0,0,.1,1,.65.65,0,0,0,.59.84,2,2,0,0,0,.81-.09,1.64,1.64,0,0,1,.86-.17c.3.08.37.33.58.51.38.3.63,0,.84-.24s.54-.06.54-.06c-.27-.56-1-.42-1-.42a.67.67,0,0,1,.75-.1c.31-.37.61-.17.61-.17a1.1,1.1,0,0,0-1-.32A.51.51,0,0,1,14.58,27.39Z"/><path class="cls-14" d="M43,23a.53.53,0,0,0-.49-.65.31.31,0,0,0,0-.18.5.5,0,0,0-.15-.15c1.14-.18,1,.86,1,.86l1.26-.53a1.46,1.46,0,0,0,.56,1.15A16,16,0,0,1,43,24c-.49,0-.46-.29-.48-.87s-.38-.5-.38-.5C42.63,22.38,43,23,43,23Z"/><path class="cls-15" d="M42.34,19.1c.31-.75,0-.88,0-.88.53.07.63.71.63.71a.71.71,0,0,0-.26-.94.34.34,0,0,0-.2-.45c1.08-.16,1.08,1.05,1,1.56.6.68,1.27.43,1.71,1.21a1.66,1.66,0,0,1,.67-.86,5.68,5.68,0,0,1,.81-.43,1.42,1.42,0,0,0,.63-.56.67.67,0,0,1-.56.19,2.43,2.43,0,0,1-.54-.26c-.4-.17-.08.41-.08.41-.74-.3-.79-.94-.34-1.11s1,.82.94-.09c0-.7-.62-.58-.87-.49A.31.31,0,0,1,45.6,17c-.21-.22.06-.53.06-.53a.32.32,0,0,1,0-.43l1.7-.46c-.2-1.16,1.55-.54,1.92-1.44.08.66-.31.77-.31.77,2.5.05,2.24,3.21,2.24,3.21a2,2,0,0,0-.85-1.46c1,1.23-.77,2.46.41,3.82a1.47,1.47,0,0,1-1-1,3,3,0,0,1-.18,1.63,2.41,2.41,0,0,0-.07,1.67,5.28,5.28,0,0,0,1,1.11,2.23,2.23,0,0,1,.19.24,4.45,4.45,0,0,1,.38.48,4.6,4.6,0,0,1,.4.64,1.3,1.3,0,0,1,.08.17l.07.16.15.29a2.06,2.06,0,0,0,.36.5.52.52,0,0,0,.11.1l.11.08a1.19,1.19,0,0,0,.25.13.9.9,0,0,0,.51,0,.66.66,0,0,0,.4-.26,1,1,0,0,0,.21-.5,1.42,1.42,0,0,0,0-.29c0-.05,0-.09,0-.14l0-.15a2.36,2.36,0,0,0-.26-.59,7.66,7.66,0,0,0-.86-1.1,6.65,6.65,0,0,1-.46-.59,3.83,3.83,0,0,1-.37-.69,3.44,3.44,0,0,1-.19-.83.47.47,0,0,1-.08-.14,2.41,2.41,0,0,1,.07-1.61,2.76,2.76,0,0,1,.93-1.2.06.06,0,0,1,.09.08,1.29,1.29,0,0,0-.16.58,7.77,7.77,0,0,0,.08,1,1.73,1.73,0,0,1-.09.93.93.93,0,0,1-.53.48,3.19,3.19,0,0,0,.23.61,4.4,4.4,0,0,0,.85,1.09,6.81,6.81,0,0,1,1,1.12,2.62,2.62,0,0,1,.36.73l.06.2a1.46,1.46,0,0,1,0,.22,1.55,1.55,0,0,1,0,.43,1.93,1.93,0,0,1-.32.84,1.57,1.57,0,0,1-.35.33,1.35,1.35,0,0,1-.44.2,1.68,1.68,0,0,1-.92-.05,2.22,2.22,0,0,1-.41-.2l-.18-.13a1.07,1.07,0,0,1-.16-.14,2.64,2.64,0,0,1-.44-.57c0,.25,0,.5-.07.74a5.77,5.77,0,0,0-.1,1.1,1.44,1.44,0,0,0,.64,1,.59.59,0,0,1,.22.55c0,.31-.1.64-.12.89,0,.43.28.45.29.94s-.36.51-.7.51-.39.39-.39.39a1,1,0,0,1,.29-1,.69.69,0,0,0-.55.53c-.48,0-.5.37-.5.37a1.09,1.09,0,0,1,.37-1,.56.56,0,0,0-.54.44.37.37,0,0,0-.26.24,1.94,1.94,0,0,1,0-.4.83.83,0,0,1,.62-.74l.57-.15c.12-1.37-.42-1.49-.42-1.49A2.72,2.72,0,0,1,48.81,27a2.85,2.85,0,0,0-1.24-2.6c-2.74-1.14-2.43-2.2-2.47-2.46a2.55,2.55,0,0,0,2.24-1.14,4,4,0,0,1-2.34.73,6.24,6.24,0,0,1-2.08-1.31C42.38,20.21,42.06,19.76,42.34,19.1Z"/><path class="cls-16" d="M42.61,27.39a.29.29,0,0,0-.37-.06,1.68,1.68,0,0,1,.3-.26.81.81,0,0,1,1,0,2.53,2.53,0,0,0,2.43.37s-.25-.89-.41-1.7.29-1.26,1.46-1,1.23,1.87,1.23,1.87a1.5,1.5,0,0,1-1.28.15,1.33,1.33,0,0,1-.11,1,.64.64,0,0,1-.58.84,2.09,2.09,0,0,1-.82-.09,1.59,1.59,0,0,0-.85-.17c-.3.08-.37.33-.58.51-.38.3-.63,0-.84-.24s-.54-.06-.54-.06c.27-.56,1-.42,1-.42a.69.69,0,0,0-.76-.1c-.3-.37-.6-.17-.6-.17a1.1,1.1,0,0,1,1-.32A.51.51,0,0,0,42.61,27.39Z"/><path class="cls-17" d="M34.11,9.43l3-5.83a1.71,1.71,0,0,0-1,.44,1.85,1.85,0,0,0-.28.28.61.61,0,0,0-1.19.18.61.61,0,0,0,.61.62,2.19,2.19,0,0,1-.21.41,1.43,1.43,0,0,1-1.21.8,1.25,1.25,0,0,1-1.26-1.26,1.92,1.92,0,0,1,.19-.83A.52.52,0,0,1,33.12,4a.71.71,0,1,0-.92-.82.68.68,0,0,0,.06.47.54.54,0,0,1,.05.41,1.56,1.56,0,0,1-3.09-.41.92.92,0,0,0,.57.07A.93.93,0,0,0,30.51,3a.91.91,0,0,0-.83-1c0-.06,0-.12,0-.18A2.34,2.34,0,0,0,28.91,0a2.31,2.31,0,0,0-.78,1.73c0,.06,0,.12,0,.18a.9.9,0,0,0-.83,1,.93.93,0,0,0,.71.76.94.94,0,0,0,.58-.07A1.63,1.63,0,0,1,27,5.39,1.65,1.65,0,0,1,25.5,4.05a.59.59,0,0,1,.06-.41.68.68,0,0,0,.06-.47A.71.71,0,1,0,24.7,4a.52.52,0,0,1,.31.25,1.92,1.92,0,0,1,.19.83,1.26,1.26,0,0,1-1.27,1.26,1.42,1.42,0,0,1-1.2-.8,2.19,2.19,0,0,1-.21-.41.61.61,0,1,0-.58-.8A2.47,2.47,0,0,0,21.66,4a1.74,1.74,0,0,0-1-.44l2.91,5.59a13.23,13.23,0,0,1,10.5.24Z"/></g></g></svg>